<svg xmlns="http://www.w3.org/2000/svg" width="1600" height="1000" viewBox="0 0 1600 1000">
    <defs>
      <linearGradient id="bg" x1="0" y1="0" x2="1" y2="1"><stop stop-color="#f9f8fb"/><stop offset=".48" stop-color="#f4f1f7"/><stop offset="1" stop-color="#edf4f8"/></linearGradient>
      <linearGradient id="stageWarm" x1="0" y1="0" x2="1" y2="1"><stop stop-color="#fff" stop-opacity=".76"/><stop offset=".55" stop-color="#f0d9d6" stop-opacity=".48"/><stop offset="1" stop-color="#eee7f3" stop-opacity=".66"/></linearGradient>
      <linearGradient id="stageCool" x1="0" y1="0" x2="1" y2="1"><stop stop-color="#fff" stop-opacity=".77"/><stop offset=".55" stop-color="#d8e9e8" stop-opacity=".54"/><stop offset="1" stop-color="#e0e6f2" stop-opacity=".65"/></linearGradient>
      <linearGradient id="stageViolet" x1="0" y1="0" x2="1" y2="1"><stop stop-color="#fff" stop-opacity=".78"/><stop offset=".55" stop-color="#e5ddf1" stop-opacity=".58"/><stop offset="1" stop-color="#ece5f5" stop-opacity=".68"/></linearGradient>
      <linearGradient id="cardWarm" x1="0" y1="0" x2="1" y2="1"><stop stop-color="#fff" stop-opacity=".91"/><stop offset=".5" stop-color="#f6e1dd" stop-opacity=".75"/><stop offset="1" stop-color="#e9d8ee" stop-opacity=".78"/></linearGradient>
      <linearGradient id="cardMint" x1="0" y1="0" x2="1" y2="1"><stop stop-color="#fff" stop-opacity=".92"/><stop offset=".5" stop-color="#d9eeee" stop-opacity=".77"/><stop offset="1" stop-color="#d8e8f1" stop-opacity=".78"/></linearGradient>
      <linearGradient id="cardViolet" x1="0" y1="0" x2="1" y2="1"><stop stop-color="#fff" stop-opacity=".92"/><stop offset=".5" stop-color="#e8daf0" stop-opacity=".78"/><stop offset="1" stop-color="#d9e2f3" stop-opacity=".8"/></linearGradient>
      <linearGradient id="arrowGrad" x1="0" y1="0" x2="1" y2="1"><stop stop-color="#a79ba5"/><stop offset=".48" stop-color="#c792ad"/><stop offset="1" stop-color="#d9a6c2"/></linearGradient>
      <linearGradient id="numberGrad" x1="0" y1="0" x2="1" y2="1"><stop stop-color="#978d98"/><stop offset=".5" stop-color="#bd8fa9"/><stop offset="1" stop-color="#d7a5bf"/></linearGradient>
      <filter id="stageShadow" x="-20%" y="-20%" width="140%" height="150%"><feDropShadow dx="0" dy="10" stdDeviation="9" flood-color="#5f5674" flood-opacity=".16"/></filter>
      <filter id="shadow" x="-20%" y="-20%" width="140%" height="150%"><feDropShadow dx="0" dy="7" stdDeviation="6" flood-color="#665875" flood-opacity=".16"/></filter>
      <marker id="arrow" markerUnits="userSpaceOnUse" markerWidth="44" markerHeight="44" refX="34" refY="22" orient="auto"><path d="M0 0L44 22L0 44Z" fill="#bd91aa" stroke="#fff" stroke-width="2.5"/></marker>
    </defs>
    <rect width="1600" height="1000" fill="url(#bg)"/>
    <ellipse cx="170" cy="160" rx="270" ry="200" fill="#eeb9d0" opacity=".14"/>
    <ellipse cx="1390" cy="770" rx="290" ry="220" fill="#9acfe4" opacity=".14"/><g filter="url(#stageShadow)"><rect x="92" y="28.0" width="1060" height="312.3333333333333" rx="34" fill="url(#stageWarm)" stroke="#fff" stroke-width="4"/><rect x="99" y="35.0" width="1046" height="298.3333333333333" rx="28" fill="none" stroke="#fff" stroke-opacity=".66" stroke-width="2"/></g><text x="130" y="83.0" text-anchor="start" font-family="Noto Sans SC, Microsoft YaHei, sans-serif" font-size="30" font-weight="850" fill="#172653">阶段</text><text x="220" y="90.0" font-family="Noto Sans SC, Microsoft YaHei, sans-serif" font-size="55" font-weight="950" fill="url(#numberGrad)" stroke="#fff" stroke-width="1">1</text><text x="290" y="83.0" text-anchor="start" font-family="Noto Sans SC, Microsoft YaHei, sans-serif" font-size="33" font-weight="900" fill="#172653">理解起点</text><g filter="url(#shadow)"><rect x="174" y="106.0" width="380" height="210.33333333333331" rx="23" fill="url(#cardWarm)" stroke="#fff" stroke-width="4"/><rect x="179" y="111.0" width="370" height="200.33333333333331" rx="19" fill="none" stroke="#fff" stroke-opacity=".72" stroke-width="2"/></g><text x="204" y="152.0" text-anchor="start" font-family="Noto Sans SC, Microsoft YaHei, sans-serif" font-size="34" font-weight="900" fill="#142552">01</text><text x="278" y="150.0" text-anchor="start" font-family="Noto Sans SC, Microsoft YaHei, sans-serif" font-size="27" font-weight="850" fill="#172653">模型体积过大</text><circle cx="364.0" cy="225.89" r="39" fill="#fff" fill-opacity=".54" stroke="#fff" stroke-width="2"/><path d="M342.0,198.89h30l14,14v40h-44z M372.0,198.89v14h14 M352.0,225.89h24 M352.0,237.89h20" fill="none" stroke="#513b72" stroke-width="4" stroke-linecap="round" stroke-linejoin="round"/><g filter="url(#shadow)"><rect x="690" y="106.0" width="380" height="210.33333333333331" rx="23" fill="url(#cardWarm)" stroke="#fff" stroke-width="4"/><rect x="695" y="111.0" width="370" height="200.33333333333331" rx="19" fill="none" stroke="#fff" stroke-opacity=".72" stroke-width="2"/></g><text x="720" y="152.0" text-anchor="start" font-family="Noto Sans SC, Microsoft YaHei, sans-serif" font-size="34" font-weight="900" fill="#142552">02</text><text x="794" y="150.0" text-anchor="start" font-family="Noto Sans SC, Microsoft YaHei, sans-serif" font-size="27" font-weight="850" fill="#172653">降低数字精度</text><circle cx="880.0" cy="225.89" r="39" fill="#fff" fill-opacity=".54" stroke="#fff" stroke-width="2"/><path d="M858.0,198.89h30l14,14v40h-44z M888.0,198.89v14h14 M868.0,225.89h24 M868.0,237.89h20" fill="none" stroke="#513b72" stroke-width="4" stroke-linecap="round" stroke-linejoin="round"/><g>
      <path d="M570 202.16666666666666 H647 V191.16666666666666 L672 211.16666666666666 L647 231.16666666666666 V220.16666666666666 H570
        Q561 220.16666666666666 561 211.16666666666666 Q561 202.16666666666666 570 202.16666666666666 Z"
        fill="url(#arrowGrad)" stroke="#fff" stroke-width="3"/>
      <path d="M572 207.16666666666666 H642 L661 211.16666666666666 L642 215.16666666666666 H572"
        fill="none" stroke="#f5e8ef" stroke-opacity=".82" stroke-width="2.5" stroke-linecap="round"/>
    </g><g>
      <path d="M1080 223.78666666666666 H1132 Q1148 223.78666666666666 1148 239.78666666666666 V362.3333333333333" fill="none" stroke="#fff" stroke-opacity=".92" stroke-width="20" stroke-linecap="round" stroke-linejoin="round"/>
      <path d="M1080 223.78666666666666 H1132 Q1148 223.78666666666666 1148 239.78666666666666 V362.3333333333333" fill="none" stroke="url(#arrowGrad)" stroke-width="13" stroke-linecap="round" stroke-linejoin="round" marker-end="url(#arrow)"/>
      <path d="M1080 223.78666666666666 H1132 Q1148 223.78666666666666 1148 239.78666666666666 V362.3333333333333" fill="none" stroke="#f5e8ef" stroke-opacity=".64" stroke-width="3" stroke-linecap="round" stroke-linejoin="round"/>
    </g><g filter="url(#stageShadow)"><rect x="170" y="315.3333333333333" width="1120" height="312.3333333333333" rx="34" fill="url(#stageCool)" stroke="#fff" stroke-width="4"/><rect x="177" y="322.3333333333333" width="1106" height="298.3333333333333" rx="28" fill="none" stroke="#fff" stroke-opacity=".66" stroke-width="2"/></g><text x="208" y="370.3333333333333" text-anchor="start" font-family="Noto Sans SC, Microsoft YaHei, sans-serif" font-size="30" font-weight="850" fill="#172653">阶段</text><text x="298" y="377.3333333333333" font-family="Noto Sans SC, Microsoft YaHei, sans-serif" font-size="55" font-weight="950" fill="url(#numberGrad)" stroke="#fff" stroke-width="1">2</text><text x="368" y="370.3333333333333" text-anchor="start" font-family="Noto Sans SC, Microsoft YaHei, sans-serif" font-size="33" font-weight="900" fill="#172653">核心过程</text><g filter="url(#shadow)"><rect x="252" y="393.3333333333333" width="380" height="210.33333333333331" rx="23" fill="url(#cardMint)" stroke="#fff" stroke-width="4"/><rect x="257" y="398.3333333333333" width="370" height="200.33333333333331" rx="19" fill="none" stroke="#fff" stroke-opacity=".72" stroke-width="2"/></g><text x="282" y="439.3333333333333" text-anchor="start" font-family="Noto Sans SC, Microsoft YaHei, sans-serif" font-size="34" font-weight="900" fill="#142552">03</text><text x="356" y="437.3333333333333" text-anchor="start" font-family="Noto Sans SC, Microsoft YaHei, sans-serif" font-size="27" font-weight="850" fill="#172653">减少显存占用</text><circle cx="442.0" cy="513.2233333333332" r="39" fill="#fff" fill-opacity=".54" stroke="#fff" stroke-width="2"/><path d="M420.0,486.22333333333324h30l14,14v40h-44z M450.0,486.22333333333324v14h14 M430.0,513.2233333333332h24 M430.0,525.2233333333332h20" fill="none" stroke="#513b72" stroke-width="4" stroke-linecap="round" stroke-linejoin="round"/><g filter="url(#shadow)"><rect x="828" y="393.3333333333333" width="380" height="210.33333333333331" rx="23" fill="url(#cardMint)" stroke="#fff" stroke-width="4"/><rect x="833" y="398.3333333333333" width="370" height="200.33333333333331" rx="19" fill="none" stroke="#fff" stroke-opacity=".72" stroke-width="2"/></g><text x="858" y="439.3333333333333" text-anchor="start" font-family="Noto Sans SC, Microsoft YaHei, sans-serif" font-size="34" font-weight="900" fill="#142552">04</text><text x="932" y="437.3333333333333" text-anchor="start" font-family="Noto Sans SC, Microsoft YaHei, sans-serif" font-size="27" font-weight="850" fill="#172653">换取运行速度</text><circle cx="1018.0" cy="513.2233333333332" r="39" fill="#fff" fill-opacity=".54" stroke="#fff" stroke-width="2"/><path d="M996.0,486.22333333333324h30l14,14v40h-44z M1026.0,486.22333333333324v14h14 M1006.0,513.2233333333332h24 M1006.0,525.2233333333332h20" fill="none" stroke="#513b72" stroke-width="4" stroke-linecap="round" stroke-linejoin="round"/><g>
      <path d="M648 489.5 H785 V478.5 L810 498.5 L785 518.5 V507.5 H648
        Q639 507.5 639 498.5 Q639 489.5 648 489.5 Z"
        fill="url(#arrowGrad)" stroke="#fff" stroke-width="3"/>
      <path d="M650 494.5 H780 L799 498.5 L780 502.5 H650"
        fill="none" stroke="#f5e8ef" stroke-opacity=".82" stroke-width="2.5" stroke-linecap="round"/>
    </g><g>
      <path d="M1218 511.12 H1270 Q1286 511.12 1286 527.12 V649.6666666666666" fill="none" stroke="#fff" stroke-opacity=".92" stroke-width="20" stroke-linecap="round" stroke-linejoin="round"/>
      <path d="M1218 511.12 H1270 Q1286 511.12 1286 527.12 V649.6666666666666" fill="none" stroke="url(#arrowGrad)" stroke-width="13" stroke-linecap="round" stroke-linejoin="round" marker-end="url(#arrow)"/>
      <path d="M1218 511.12 H1270 Q1286 511.12 1286 527.12 V649.6666666666666" fill="none" stroke="#f5e8ef" stroke-opacity=".64" stroke-width="3" stroke-linecap="round" stroke-linejoin="round"/>
    </g><g filter="url(#stageShadow)"><rect x="250" y="602.6666666666666" width="1160" height="282.3333333333333" rx="34" fill="url(#stageViolet)" stroke="#fff" stroke-width="4"/><rect x="257" y="609.6666666666666" width="1146" height="268.3333333333333" rx="28" fill="none" stroke="#fff" stroke-opacity=".66" stroke-width="2"/></g><text x="288" y="657.6666666666666" text-anchor="start" font-family="Noto Sans SC, Microsoft YaHei, sans-serif" font-size="30" font-weight="850" fill="#172653">阶段</text><text x="378" y="664.6666666666666" font-family="Noto Sans SC, Microsoft YaHei, sans-serif" font-size="55" font-weight="950" fill="url(#numberGrad)" stroke="#fff" stroke-width="1">3</text><text x="448" y="657.6666666666666" text-anchor="start" font-family="Noto Sans SC, Microsoft YaHei, sans-serif" font-size="33" font-weight="900" fill="#172653">判断结论</text><g filter="url(#shadow)"><rect x="332" y="680.6666666666666" width="380" height="180.33333333333331" rx="23" fill="url(#cardViolet)" stroke="#fff" stroke-width="4"/><rect x="337" y="685.6666666666666" width="370" height="170.33333333333331" rx="19" fill="none" stroke="#fff" stroke-opacity=".72" stroke-width="2"/></g><text x="362" y="726.6666666666666" text-anchor="start" font-family="Noto Sans SC, Microsoft YaHei, sans-serif" font-size="34" font-weight="900" fill="#142552">05</text><text x="436" y="724.6666666666666" text-anchor="start" font-family="Noto Sans SC, Microsoft YaHei, sans-serif" font-size="27" font-weight="850" fill="#172653">检查能力损失</text><circle cx="522.0" cy="783.4566666666666" r="39" fill="#fff" fill-opacity=".54" stroke="#fff" stroke-width="2"/><path d="M500.0,756.4566666666666h30l14,14v40h-44z M530.0,756.4566666666666v14h14 M510.0,783.4566666666666h24 M510.0,795.4566666666666h20" fill="none" stroke="#513b72" stroke-width="4" stroke-linecap="round" stroke-linejoin="round"/><g filter="url(#shadow)"><rect x="948" y="680.6666666666666" width="380" height="180.33333333333331" rx="23" fill="url(#cardViolet)" stroke="#fff" stroke-width="4"/><rect x="953" y="685.6666666666666" width="370" height="170.33333333333331" rx="19" fill="none" stroke="#fff" stroke-opacity=".72" stroke-width="2"/></g><text x="978" y="726.6666666666666" text-anchor="start" font-family="Noto Sans SC, Microsoft YaHei, sans-serif" font-size="34" font-weight="900" fill="#142552">06</text><text x="1052" y="724.6666666666666" text-anchor="start" font-family="Noto Sans SC, Microsoft YaHei, sans-serif" font-size="27" font-weight="850" fill="#172653">用真实任务对比</text><circle cx="1138.0" cy="783.4566666666666" r="39" fill="#fff" fill-opacity=".54" stroke="#fff" stroke-width="2"/><path d="M1116.0,756.4566666666666h30l14,14v40h-44z M1146.0,756.4566666666666v14h14 M1126.0,783.4566666666666h24 M1126.0,795.4566666666666h20" fill="none" stroke="#513b72" stroke-width="4" stroke-linecap="round" stroke-linejoin="round"/><g>
      <path d="M728 761.8333333333333 H905 V750.8333333333333 L930 770.8333333333333 L905 790.8333333333333 V779.8333333333333 H728
        Q719 779.8333333333333 719 770.8333333333333 Q719 761.8333333333333 728 761.8333333333333 Z"
        fill="url(#arrowGrad)" stroke="#fff" stroke-width="3"/>
      <path d="M730 766.8333333333333 H900 L919 770.8333333333333 L900 774.8333333333333 H730"
        fill="none" stroke="#f5e8ef" stroke-opacity=".82" stroke-width="2.5" stroke-linecap="round"/>
    </g><rect x="250" y="914" width="1100" height="62" rx="31" fill="#fff" fill-opacity=".72" stroke="#e2c9db" stroke-width="2"/><text x="800" y="954" text-anchor="middle" font-family="Noto Sans SC, Microsoft YaHei, sans-serif" font-size="24" font-weight="850" fill="#172653">模型体积过大  →  减少显存占用  →  检查能力损失  →  最终结论</text></svg>