<svg xmlns="http://www.w3.org/2000/svg" width="1600" height="1000" viewBox="0 0 1600 1000">
    <defs>
      <linearGradient id="bg" x1="0" y1="0" x2="1" y2="1"><stop stop-color="#f9f8fb"/><stop offset=".48" stop-color="#f4f1f7"/><stop offset="1" stop-color="#edf4f8"/></linearGradient>
      <linearGradient id="stageWarm" x1="0" y1="0" x2="1" y2="1"><stop stop-color="#fff" stop-opacity=".76"/><stop offset=".55" stop-color="#f0d9d6" stop-opacity=".48"/><stop offset="1" stop-color="#eee7f3" stop-opacity=".66"/></linearGradient>
      <linearGradient id="stageCool" x1="0" y1="0" x2="1" y2="1"><stop stop-color="#fff" stop-opacity=".77"/><stop offset=".55" stop-color="#d8e9e8" stop-opacity=".54"/><stop offset="1" stop-color="#e0e6f2" stop-opacity=".65"/></linearGradient>
      <linearGradient id="stageViolet" x1="0" y1="0" x2="1" y2="1"><stop stop-color="#fff" stop-opacity=".78"/><stop offset=".55" stop-color="#e5ddf1" stop-opacity=".58"/><stop offset="1" stop-color="#ece5f5" stop-opacity=".68"/></linearGradient>
      <linearGradient id="cardWarm" x1="0" y1="0" x2="1" y2="1"><stop stop-color="#fff" stop-opacity=".91"/><stop offset=".5" stop-color="#f6e1dd" stop-opacity=".75"/><stop offset="1" stop-color="#e9d8ee" stop-opacity=".78"/></linearGradient>
      <linearGradient id="cardMint" x1="0" y1="0" x2="1" y2="1"><stop stop-color="#fff" stop-opacity=".92"/><stop offset=".5" stop-color="#d9eeee" stop-opacity=".77"/><stop offset="1" stop-color="#d8e8f1" stop-opacity=".78"/></linearGradient>
      <linearGradient id="cardViolet" x1="0" y1="0" x2="1" y2="1"><stop stop-color="#fff" stop-opacity=".92"/><stop offset=".5" stop-color="#e8daf0" stop-opacity=".78"/><stop offset="1" stop-color="#d9e2f3" stop-opacity=".8"/></linearGradient>
      <linearGradient id="arrowGrad" x1="0" y1="0" x2="1" y2="1"><stop stop-color="#a79ba5"/><stop offset=".48" stop-color="#c792ad"/><stop offset="1" stop-color="#d9a6c2"/></linearGradient>
      <linearGradient id="numberGrad" x1="0" y1="0" x2="1" y2="1"><stop stop-color="#978d98"/><stop offset=".5" stop-color="#bd8fa9"/><stop offset="1" stop-color="#d7a5bf"/></linearGradient>
      <filter id="stageShadow" x="-20%" y="-20%" width="140%" height="150%"><feDropShadow dx="0" dy="10" stdDeviation="9" flood-color="#5f5674" flood-opacity=".16"/></filter>
      <filter id="shadow" x="-20%" y="-20%" width="140%" height="150%"><feDropShadow dx="0" dy="7" stdDeviation="6" flood-color="#665875" flood-opacity=".16"/></filter>
      <marker id="arrow" markerUnits="userSpaceOnUse" markerWidth="44" markerHeight="44" refX="34" refY="22" orient="auto"><path d="M0 0L44 22L0 44Z" fill="#bd91aa" stroke="#fff" stroke-width="2.5"/></marker>
    </defs>
    <rect width="1600" height="1000" fill="url(#bg)"/>
    <ellipse cx="170" cy="160" rx="270" ry="200" fill="#eeb9d0" opacity=".14"/>
    <ellipse cx="1390" cy="770" rx="290" ry="220" fill="#9acfe4" opacity=".14"/><g filter="url(#stageShadow)"><rect x="92" y="28.0" width="1060" height="240.5" rx="34" fill="url(#stageWarm)" stroke="#fff" stroke-width="4"/><rect x="99" y="35.0" width="1046" height="226.5" rx="28" fill="none" stroke="#fff" stroke-opacity=".66" stroke-width="2"/></g><text x="130" y="83.0" text-anchor="start" font-family="Noto Sans SC, Microsoft YaHei, sans-serif" font-size="30" font-weight="850" fill="#172653">阶段</text><text x="220" y="90.0" font-family="Noto Sans SC, Microsoft YaHei, sans-serif" font-size="55" font-weight="950" fill="url(#numberGrad)" stroke="#fff" stroke-width="1">1</text><text x="290" y="83.0" text-anchor="start" font-family="Noto Sans SC, Microsoft YaHei, sans-serif" font-size="33" font-weight="900" fill="#172653">理解起点</text><g filter="url(#shadow)"><rect x="174" y="106.0" width="380" height="138.5" rx="23" fill="url(#cardWarm)" stroke="#fff" stroke-width="4"/><rect x="179" y="111.0" width="370" height="128.5" rx="19" fill="none" stroke="#fff" stroke-opacity=".72" stroke-width="2"/></g><text x="204" y="152.0" text-anchor="start" font-family="Noto Sans SC, Microsoft YaHei, sans-serif" font-size="34" font-weight="900" fill="#142552">01</text><text x="278" y="150.0" text-anchor="start" font-family="Noto Sans SC, Microsoft YaHei, sans-serif" font-size="27" font-weight="850" fill="#172653">识别请求类型</text><circle cx="364.0" cy="186.0" r="27" fill="#fff" fill-opacity=".54" stroke="#fff" stroke-width="2"/><g transform="translate(364.0 186.0) scale(.66) translate(-364.0 -186.0)"><path d="M342.0,159.0h30l14,14v40h-44z M372.0,159.0v14h14 M352.0,186.0h24 M352.0,198.0h20" fill="none" stroke="#513b72" stroke-width="4" stroke-linecap="round" stroke-linejoin="round"/></g><g filter="url(#shadow)"><rect x="690" y="106.0" width="380" height="138.5" rx="23" fill="url(#cardWarm)" stroke="#fff" stroke-width="4"/><rect x="695" y="111.0" width="370" height="128.5" rx="19" fill="none" stroke="#fff" stroke-opacity=".72" stroke-width="2"/></g><text x="720" y="152.0" text-anchor="start" font-family="Noto Sans SC, Microsoft YaHei, sans-serif" font-size="34" font-weight="900" fill="#142552">02</text><text x="794" y="150.0" text-anchor="start" font-family="Noto Sans SC, Microsoft YaHei, sans-serif" font-size="27" font-weight="850" fill="#172653">规则快速分流</text><circle cx="880.0" cy="186.0" r="27" fill="#fff" fill-opacity=".54" stroke="#fff" stroke-width="2"/><g transform="translate(880.0 186.0) scale(.66) translate(-880.0 -186.0)"><path d="M858.0,159.0h30l14,14v40h-44z M888.0,159.0v14h14 M868.0,186.0h24 M868.0,198.0h20" fill="none" stroke="#513b72" stroke-width="4" stroke-linecap="round" stroke-linejoin="round"/></g><g>
      <path d="M570 166.25 H647 V155.25 L672 175.25 L647 195.25 V184.25 H570
        Q561 184.25 561 175.25 Q561 166.25 570 166.25 Z"
        fill="url(#arrowGrad)" stroke="#fff" stroke-width="3"/>
      <path d="M572 171.25 H642 L661 175.25 L642 179.25 H572"
        fill="none" stroke="#f5e8ef" stroke-opacity=".82" stroke-width="2.5" stroke-linecap="round"/>
    </g><g>
      <path d="M1080 183.56 H1132 Q1148 183.56 1148 199.56 V290.5" fill="none" stroke="#fff" stroke-opacity=".92" stroke-width="20" stroke-linecap="round" stroke-linejoin="round"/>
      <path d="M1080 183.56 H1132 Q1148 183.56 1148 199.56 V290.5" fill="none" stroke="url(#arrowGrad)" stroke-width="13" stroke-linecap="round" stroke-linejoin="round" marker-end="url(#arrow)"/>
      <path d="M1080 183.56 H1132 Q1148 183.56 1148 199.56 V290.5" fill="none" stroke="#f5e8ef" stroke-opacity=".64" stroke-width="3" stroke-linecap="round" stroke-linejoin="round"/>
    </g><g filter="url(#stageShadow)"><rect x="170" y="243.5" width="1120" height="240.5" rx="34" fill="url(#stageCool)" stroke="#fff" stroke-width="4"/><rect x="177" y="250.5" width="1106" height="226.5" rx="28" fill="none" stroke="#fff" stroke-opacity=".66" stroke-width="2"/></g><text x="208" y="298.5" text-anchor="start" font-family="Noto Sans SC, Microsoft YaHei, sans-serif" font-size="30" font-weight="850" fill="#172653">阶段</text><text x="298" y="305.5" font-family="Noto Sans SC, Microsoft YaHei, sans-serif" font-size="55" font-weight="950" fill="url(#numberGrad)" stroke="#fff" stroke-width="1">2</text><text x="368" y="298.5" text-anchor="start" font-family="Noto Sans SC, Microsoft YaHei, sans-serif" font-size="33" font-weight="900" fill="#172653">建立方法</text><g filter="url(#shadow)"><rect x="252" y="321.5" width="380" height="138.5" rx="23" fill="url(#cardMint)" stroke="#fff" stroke-width="4"/><rect x="257" y="326.5" width="370" height="128.5" rx="19" fill="none" stroke="#fff" stroke-opacity=".72" stroke-width="2"/></g><text x="282" y="367.5" text-anchor="start" font-family="Noto Sans SC, Microsoft YaHei, sans-serif" font-size="34" font-weight="900" fill="#142552">03</text><text x="356" y="365.5" text-anchor="start" font-family="Noto Sans SC, Microsoft YaHei, sans-serif" font-size="27" font-weight="850" fill="#172653">模型判断复杂任务</text><circle cx="442.0" cy="401.5" r="27" fill="#fff" fill-opacity=".54" stroke="#fff" stroke-width="2"/><g transform="translate(442.0 401.5) scale(.66) translate(-442.0 -401.5)"><circle cx="437.0" cy="396.5" r="23" fill="none" stroke="#513b72" stroke-width="4" stroke-linecap="round" stroke-linejoin="round"/><path d="M454.0,413.5l20,20 M425.0,396.5h24 M432.0,406.5h15" fill="none" stroke="#513b72" stroke-width="4" stroke-linecap="round" stroke-linejoin="round"/></g><g filter="url(#shadow)"><rect x="828" y="321.5" width="380" height="138.5" rx="23" fill="url(#cardMint)" stroke="#fff" stroke-width="4"/><rect x="833" y="326.5" width="370" height="128.5" rx="19" fill="none" stroke="#fff" stroke-opacity=".72" stroke-width="2"/></g><text x="858" y="367.5" text-anchor="start" font-family="Noto Sans SC, Microsoft YaHei, sans-serif" font-size="34" font-weight="900" fill="#142552">04</text><text x="932" y="365.5" text-anchor="start" font-family="Noto Sans SC, Microsoft YaHei, sans-serif" font-size="27" font-weight="850" fill="#172653">选择合适模型</text><circle cx="1018.0" cy="401.5" r="27" fill="#fff" fill-opacity=".54" stroke="#fff" stroke-width="2"/><g transform="translate(1018.0 401.5) scale(.66) translate(-1018.0 -401.5)"><path d="M996.0,374.5h30l14,14v40h-44z M1026.0,374.5v14h14 M1006.0,401.5h24 M1006.0,413.5h20" fill="none" stroke="#513b72" stroke-width="4" stroke-linecap="round" stroke-linejoin="round"/></g><g>
      <path d="M648 381.75 H785 V370.75 L810 390.75 L785 410.75 V399.75 H648
        Q639 399.75 639 390.75 Q639 381.75 648 381.75 Z"
        fill="url(#arrowGrad)" stroke="#fff" stroke-width="3"/>
      <path d="M650 386.75 H780 L799 390.75 L780 394.75 H650"
        fill="none" stroke="#f5e8ef" stroke-opacity=".82" stroke-width="2.5" stroke-linecap="round"/>
    </g><g>
      <path d="M1218 399.06 H1270 Q1286 399.06 1286 415.06 V506.0" fill="none" stroke="#fff" stroke-opacity=".92" stroke-width="20" stroke-linecap="round" stroke-linejoin="round"/>
      <path d="M1218 399.06 H1270 Q1286 399.06 1286 415.06 V506.0" fill="none" stroke="url(#arrowGrad)" stroke-width="13" stroke-linecap="round" stroke-linejoin="round" marker-end="url(#arrow)"/>
      <path d="M1218 399.06 H1270 Q1286 399.06 1286 415.06 V506.0" fill="none" stroke="#f5e8ef" stroke-opacity=".64" stroke-width="3" stroke-linecap="round" stroke-linejoin="round"/>
    </g><g filter="url(#stageShadow)"><rect x="250" y="459.0" width="1160" height="240.5" rx="34" fill="url(#stageViolet)" stroke="#fff" stroke-width="4"/><rect x="257" y="466.0" width="1146" height="226.5" rx="28" fill="none" stroke="#fff" stroke-opacity=".66" stroke-width="2"/></g><text x="288" y="514.0" text-anchor="start" font-family="Noto Sans SC, Microsoft YaHei, sans-serif" font-size="30" font-weight="850" fill="#172653">阶段</text><text x="378" y="521.0" font-family="Noto Sans SC, Microsoft YaHei, sans-serif" font-size="55" font-weight="950" fill="url(#numberGrad)" stroke="#fff" stroke-width="1">3</text><text x="448" y="514.0" text-anchor="start" font-family="Noto Sans SC, Microsoft YaHei, sans-serif" font-size="33" font-weight="900" fill="#172653">运行与控制</text><g filter="url(#shadow)"><rect x="332" y="537.0" width="380" height="138.5" rx="23" fill="url(#cardViolet)" stroke="#fff" stroke-width="4"/><rect x="337" y="542.0" width="370" height="128.5" rx="19" fill="none" stroke="#fff" stroke-opacity=".72" stroke-width="2"/></g><text x="362" y="583.0" text-anchor="start" font-family="Noto Sans SC, Microsoft YaHei, sans-serif" font-size="34" font-weight="900" fill="#142552">05</text><text x="436" y="581.0" text-anchor="start" font-family="Noto Sans SC, Microsoft YaHei, sans-serif" font-size="27" font-weight="850" fill="#172653">准备失败路线</text><circle cx="522.0" cy="617.0" r="27" fill="#fff" fill-opacity=".54" stroke="#fff" stroke-width="2"/><g transform="translate(522.0 617.0) scale(.66) translate(-522.0 -617.0)"><path d="M500.0,590.0h30l14,14v40h-44z M530.0,590.0v14h14 M510.0,617.0h24 M510.0,629.0h20" fill="none" stroke="#513b72" stroke-width="4" stroke-linecap="round" stroke-linejoin="round"/></g><g filter="url(#shadow)"><rect x="948" y="537.0" width="380" height="138.5" rx="23" fill="url(#cardViolet)" stroke="#fff" stroke-width="4"/><rect x="953" y="542.0" width="370" height="128.5" rx="19" fill="none" stroke="#fff" stroke-opacity=".72" stroke-width="2"/></g><text x="978" y="583.0" text-anchor="start" font-family="Noto Sans SC, Microsoft YaHei, sans-serif" font-size="34" font-weight="900" fill="#142552">06</text><text x="1052" y="581.0" text-anchor="start" font-family="Noto Sans SC, Microsoft YaHei, sans-serif" font-size="27" font-weight="850" fill="#172653">记录选择原因</text><circle cx="1138.0" cy="617.0" r="27" fill="#fff" fill-opacity=".54" stroke="#fff" stroke-width="2"/><g transform="translate(1138.0 617.0) scale(.66) translate(-1138.0 -617.0)"><path d="M1116.0,590.0h30l14,14v40h-44z M1146.0,590.0v14h14 M1126.0,617.0h24 M1126.0,629.0h20" fill="none" stroke="#513b72" stroke-width="4" stroke-linecap="round" stroke-linejoin="round"/></g><g>
      <path d="M728 597.25 H905 V586.25 L930 606.25 L905 626.25 V615.25 H728
        Q719 615.25 719 606.25 Q719 597.25 728 597.25 Z"
        fill="url(#arrowGrad)" stroke="#fff" stroke-width="3"/>
      <path d="M730 602.25 H900 L919 606.25 L900 610.25 H730"
        fill="none" stroke="#f5e8ef" stroke-opacity=".82" stroke-width="2.5" stroke-linecap="round"/>
    </g><g>
      <path d="M1338 614.56 H1390 Q1406 614.56 1406 630.56 V721.5" fill="none" stroke="#fff" stroke-opacity=".92" stroke-width="20" stroke-linecap="round" stroke-linejoin="round"/>
      <path d="M1338 614.56 H1390 Q1406 614.56 1406 630.56 V721.5" fill="none" stroke="url(#arrowGrad)" stroke-width="13" stroke-linecap="round" stroke-linejoin="round" marker-end="url(#arrow)"/>
      <path d="M1338 614.56 H1390 Q1406 614.56 1406 630.56 V721.5" fill="none" stroke="#f5e8ef" stroke-opacity=".64" stroke-width="3" stroke-linecap="round" stroke-linejoin="round"/>
    </g><g filter="url(#stageShadow)"><rect x="320" y="674.5" width="1120" height="210.5" rx="34" fill="url(#stageWarm)" stroke="#fff" stroke-width="4"/><rect x="327" y="681.5" width="1106" height="196.5" rx="28" fill="none" stroke="#fff" stroke-opacity=".66" stroke-width="2"/></g><text x="358" y="729.5" text-anchor="start" font-family="Noto Sans SC, Microsoft YaHei, sans-serif" font-size="30" font-weight="850" fill="#172653">阶段</text><text x="448" y="736.5" font-family="Noto Sans SC, Microsoft YaHei, sans-serif" font-size="55" font-weight="950" fill="url(#numberGrad)" stroke="#fff" stroke-width="1">4</text><text x="518" y="729.5" text-anchor="start" font-family="Noto Sans SC, Microsoft YaHei, sans-serif" font-size="33" font-weight="900" fill="#172653">判断结论</text><g filter="url(#shadow)"><rect x="620.0" y="752.5" width="520" height="108.5" rx="23" fill="url(#cardWarm)" stroke="#fff" stroke-width="4"/><rect x="625.0" y="757.5" width="510" height="98.5" rx="19" fill="none" stroke="#fff" stroke-opacity=".72" stroke-width="2"/></g><text x="650.0" y="798.5" text-anchor="start" font-family="Noto Sans SC, Microsoft YaHei, sans-serif" font-size="34" font-weight="900" fill="#142552">07</text><text x="724.0" y="796.5" text-anchor="start" font-family="Noto Sans SC, Microsoft YaHei, sans-serif" font-size="27" font-weight="850" fill="#172653">持续复查规则</text><circle cx="880.0" cy="832.5" r="27" fill="#fff" fill-opacity=".54" stroke="#fff" stroke-width="2"/><g transform="translate(880.0 832.5) scale(.66) translate(-880.0 -832.5)"><path d="M858.0,805.5h30l14,14v40h-44z M888.0,805.5v14h14 M868.0,832.5h24 M868.0,844.5h20" fill="none" stroke="#513b72" stroke-width="4" stroke-linecap="round" stroke-linejoin="round"/></g><rect x="250" y="914" width="1100" height="62" rx="31" fill="#fff" fill-opacity=".72" stroke="#e2c9db" stroke-width="2"/><text x="800" y="954" text-anchor="middle" font-family="Noto Sans SC, Microsoft YaHei, sans-serif" font-size="24" font-weight="850" fill="#172653">识别请求类型  →  模型判断复杂任务  →  准备失败路线  →  持续复查规则  →  最终结论</text></svg>