<svg xmlns="http://www.w3.org/2000/svg" width="1600" height="1000" viewBox="0 0 1600 1000">
    <defs>
      <linearGradient id="bg3" x1="0" y1="0" x2="1" y2="1"><stop stop-color="#fbfafc"/><stop offset=".52" stop-color="#f6f2f6"/><stop offset="1" stop-color="#eef4f8"/></linearGradient>
      <linearGradient id="glass3" x1="0" y1="0" x2="1" y2="1"><stop stop-color="#ffffff" stop-opacity=".94"/><stop offset=".52" stop-color="#f3e8ee" stop-opacity=".76"/><stop offset="1" stop-color="#e5edf4" stop-opacity=".78"/></linearGradient>
      <linearGradient id="accent3" x1="0" y1="0" x2="1" y2="1"><stop stop-color="#9a919a"/><stop offset=".5" stop-color="#bd91aa"/><stop offset="1" stop-color="#d3a2bc"/></linearGradient>
      <filter id="shadow3" x="-20%" y="-30%" width="140%" height="170%"><feDropShadow dx="0" dy="8" stdDeviation="9" flood-color="#62586d" flood-opacity=".14"/></filter>
      <marker id="down3" markerUnits="userSpaceOnUse" markerWidth="22" markerHeight="18" refX="16" refY="9" orient="auto"><path d="M0 0L18 9L0 18Z" fill="#bd91aa"/></marker>
    </defs>
    <rect width="1600" height="1000" fill="url(#bg3)"/>
    <ellipse cx="180" cy="120" rx="280" ry="180" fill="#eab7cc" opacity=".10"/>
    <ellipse cx="1430" cy="820" rx="310" ry="220" fill="#a9cfe2" opacity=".11"/>
    <text x="90" y="88" font-family="Noto Sans SC, Microsoft YaHei, sans-serif" font-size="50" font-weight="900" fill="#172653">Chunk 与重叠</text>
    <text x="92" y="132" font-family="Noto Sans SC, Microsoft YaHei, sans-serif" font-size="21" font-weight="560" fill="#625e70">长文档为什么要切片，以及重叠怎样避免上下文断裂。</text>
    <path d="M800 184 V892" stroke="#d7c8d3" stroke-width="5" stroke-linecap="round"/><rect x="70" y="145.0" width="210" height="54" rx="27" fill="#fff" fill-opacity=".7" stroke="#dbcbd7" stroke-width="2"/><text x="96" y="179.0" font-family="Noto Sans SC, Microsoft YaHei, sans-serif" font-size="18" font-weight="850" fill="#69566a">阶段 1 · 理解起点</text><path d="M817 188.0 H865" stroke="#bd91aa" stroke-width="5" stroke-linecap="round"/><circle cx="800" cy="188.0" r="18" fill="url(#accent3)" stroke="#fff" stroke-width="4"/><g filter="url(#shadow3)"><rect x="865" y="140.0" width="400" height="96" rx="24" fill="url(#glass3)" stroke="#fff" stroke-width="4"/><rect x="871" y="146.0" width="388" height="84" rx="19" fill="none" stroke="#fff" stroke-opacity=".72" stroke-width="2"/></g><text x="890" y="198.0" font-family="Noto Sans SC, Microsoft YaHei, sans-serif" font-size="29" font-weight="900" fill="url(#accent3)">01</text><text x="961" y="197.0" font-family="Noto Sans SC, Microsoft YaHei, sans-serif" font-size="25" font-weight="850" fill="#172653">长文切成片段</text><path d="M800 210.0 V294.0" stroke="url(#accent3)" stroke-width="7" stroke-linecap="round" marker-end="url(#down3)"/><path d="M783 318.0 H735" stroke="#bd91aa" stroke-width="5" stroke-linecap="round"/><circle cx="800" cy="318.0" r="18" fill="url(#accent3)" stroke="#fff" stroke-width="4"/><g filter="url(#shadow3)"><rect x="335" y="270.0" width="400" height="96" rx="24" fill="url(#glass3)" stroke="#fff" stroke-width="4"/><rect x="341" y="276.0" width="388" height="84" rx="19" fill="none" stroke="#fff" stroke-opacity=".72" stroke-width="2"/></g><text x="360" y="328.0" font-family="Noto Sans SC, Microsoft YaHei, sans-serif" font-size="29" font-weight="900" fill="url(#accent3)">02</text><text x="431" y="327.0" font-family="Noto Sans SC, Microsoft YaHei, sans-serif" font-size="25" font-weight="850" fill="#172653">沿语义边界下刀</text><path d="M800 340.0 V424.0" stroke="url(#accent3)" stroke-width="7" stroke-linecap="round" marker-end="url(#down3)"/><rect x="70" y="405.0" width="210" height="54" rx="27" fill="#fff" fill-opacity=".7" stroke="#dbcbd7" stroke-width="2"/><text x="96" y="439.0" font-family="Noto Sans SC, Microsoft YaHei, sans-serif" font-size="18" font-weight="850" fill="#69566a">阶段 2 · 核心过程</text><path d="M817 448.0 H865" stroke="#bd91aa" stroke-width="5" stroke-linecap="round"/><circle cx="800" cy="448.0" r="18" fill="url(#accent3)" stroke="#fff" stroke-width="4"/><g filter="url(#shadow3)"><rect x="865" y="400.0" width="400" height="96" rx="24" fill="url(#glass3)" stroke="#fff" stroke-width="4"/><rect x="871" y="406.0" width="388" height="84" rx="19" fill="none" stroke="#fff" stroke-opacity=".72" stroke-width="2"/></g><text x="890" y="458.0" font-family="Noto Sans SC, Microsoft YaHei, sans-serif" font-size="29" font-weight="900" fill="url(#accent3)">03</text><text x="961" y="457.0" font-family="Noto Sans SC, Microsoft YaHei, sans-serif" font-size="25" font-weight="850" fill="#172653">控制片段长度</text><path d="M800 470.0 V554.0" stroke="url(#accent3)" stroke-width="7" stroke-linecap="round" marker-end="url(#down3)"/><path d="M783 578.0 H735" stroke="#bd91aa" stroke-width="5" stroke-linecap="round"/><circle cx="800" cy="578.0" r="18" fill="url(#accent3)" stroke="#fff" stroke-width="4"/><g filter="url(#shadow3)"><rect x="335" y="530.0" width="400" height="96" rx="24" fill="url(#glass3)" stroke="#fff" stroke-width="4"/><rect x="341" y="536.0" width="388" height="84" rx="19" fill="none" stroke="#fff" stroke-opacity=".72" stroke-width="2"/></g><text x="360" y="588.0" font-family="Noto Sans SC, Microsoft YaHei, sans-serif" font-size="29" font-weight="900" fill="url(#accent3)">04</text><text x="431" y="587.0" font-family="Noto Sans SC, Microsoft YaHei, sans-serif" font-size="25" font-weight="850" fill="#172653">保留少量重叠</text><path d="M800 600.0 V684.0" stroke="url(#accent3)" stroke-width="7" stroke-linecap="round" marker-end="url(#down3)"/><rect x="70" y="665.0" width="210" height="54" rx="27" fill="#fff" fill-opacity=".7" stroke="#dbcbd7" stroke-width="2"/><text x="96" y="699.0" font-family="Noto Sans SC, Microsoft YaHei, sans-serif" font-size="18" font-weight="850" fill="#69566a">阶段 3 · 判断结论</text><path d="M817 708.0 H865" stroke="#bd91aa" stroke-width="5" stroke-linecap="round"/><circle cx="800" cy="708.0" r="18" fill="url(#accent3)" stroke="#fff" stroke-width="4"/><g filter="url(#shadow3)"><rect x="865" y="660.0" width="400" height="96" rx="24" fill="url(#glass3)" stroke="#fff" stroke-width="4"/><rect x="871" y="666.0" width="388" height="84" rx="19" fill="none" stroke="#fff" stroke-opacity=".72" stroke-width="2"/></g><text x="890" y="718.0" font-family="Noto Sans SC, Microsoft YaHei, sans-serif" font-size="29" font-weight="900" fill="url(#accent3)">05</text><text x="961" y="717.0" font-family="Noto Sans SC, Microsoft YaHei, sans-serif" font-size="25" font-weight="850" fill="#172653">保存页码来源</text><path d="M800 730.0 V814.0" stroke="url(#accent3)" stroke-width="7" stroke-linecap="round" marker-end="url(#down3)"/><path d="M783 838.0 H735" stroke="#bd91aa" stroke-width="5" stroke-linecap="round"/><circle cx="800" cy="838.0" r="18" fill="url(#accent3)" stroke="#fff" stroke-width="4"/><g filter="url(#shadow3)"><rect x="335" y="790.0" width="400" height="96" rx="24" fill="url(#glass3)" stroke="#fff" stroke-width="4"/><rect x="341" y="796.0" width="388" height="84" rx="19" fill="none" stroke="#fff" stroke-opacity=".72" stroke-width="2"/></g><text x="360" y="848.0" font-family="Noto Sans SC, Microsoft YaHei, sans-serif" font-size="29" font-weight="900" fill="url(#accent3)">06</text><text x="431" y="847.0" font-family="Noto Sans SC, Microsoft YaHei, sans-serif" font-size="25" font-weight="850" fill="#172653">用真实问题评估</text><rect x="330" y="910" width="940" height="54" rx="27" fill="#fff" fill-opacity=".76" stroke="#ddc8d7" stroke-width="2"/><text x="800" y="944" text-anchor="middle" font-family="Noto Sans SC, Microsoft YaHei, sans-serif" font-size="22" font-weight="820" fill="#172653">长文切成片段  →  用真实问题评估</text></svg>