<svg xmlns="http://www.w3.org/2000/svg" width="1600" height="1000" viewBox="0 0 1600 1000">
    <defs>
      <linearGradient id="bg3" x1="0" y1="0" x2="1" y2="1"><stop stop-color="#fbfafc"/><stop offset=".52" stop-color="#f6f2f6"/><stop offset="1" stop-color="#eef4f8"/></linearGradient>
      <linearGradient id="glass3" x1="0" y1="0" x2="1" y2="1"><stop stop-color="#ffffff" stop-opacity=".94"/><stop offset=".52" stop-color="#f3e8ee" stop-opacity=".76"/><stop offset="1" stop-color="#e5edf4" stop-opacity=".78"/></linearGradient>
      <linearGradient id="accent3" x1="0" y1="0" x2="1" y2="1"><stop stop-color="#9a919a"/><stop offset=".5" stop-color="#bd91aa"/><stop offset="1" stop-color="#d3a2bc"/></linearGradient>
      <filter id="shadow3" x="-20%" y="-30%" width="140%" height="170%"><feDropShadow dx="0" dy="8" stdDeviation="9" flood-color="#62586d" flood-opacity=".14"/></filter>
      <marker id="down3" markerUnits="userSpaceOnUse" markerWidth="22" markerHeight="18" refX="16" refY="9" orient="auto"><path d="M0 0L18 9L0 18Z" fill="#bd91aa"/></marker>
    </defs>
    <rect width="1600" height="1000" fill="url(#bg3)"/>
    <ellipse cx="180" cy="120" rx="280" ry="180" fill="#eab7cc" opacity=".10"/>
    <ellipse cx="1430" cy="820" rx="310" ry="220" fill="#a9cfe2" opacity=".11"/>
    <text x="90" y="88" font-family="Noto Sans SC, Microsoft YaHei, sans-serif" font-size="50" font-weight="900" fill="#172653">国内安装与使用 Codex</text>
    <text x="92" y="132" font-family="Noto Sans SC, Microsoft YaHei, sans-serif" font-size="21" font-weight="560" fill="#625e70">从桌面应用、命令行和 IDE 三条路线中，选出最适合自己的 Codex 入口。</text>
    <path d="M800 184 V892" stroke="#d7c8d3" stroke-width="5" stroke-linecap="round"/><rect x="70" y="145.0" width="210" height="54" rx="27" fill="#fff" fill-opacity=".7" stroke="#dbcbd7" stroke-width="2"/><text x="96" y="179.0" font-family="Noto Sans SC, Microsoft YaHei, sans-serif" font-size="18" font-weight="850" fill="#69566a">阶段 1 · 理解起点</text><path d="M817 188.0 H865" stroke="#bd91aa" stroke-width="5" stroke-linecap="round"/><circle cx="800" cy="188.0" r="18" fill="url(#accent3)" stroke="#fff" stroke-width="4"/><g filter="url(#shadow3)"><rect x="865" y="140.0" width="400" height="96" rx="24" fill="url(#glass3)" stroke="#fff" stroke-width="4"/><rect x="871" y="146.0" width="388" height="84" rx="19" fill="none" stroke="#fff" stroke-opacity=".72" stroke-width="2"/></g><text x="890" y="198.0" font-family="Noto Sans SC, Microsoft YaHei, sans-serif" font-size="29" font-weight="900" fill="url(#accent3)">01</text><text x="961" y="197.0" font-family="Noto Sans SC, Microsoft YaHei, sans-serif" font-size="25" font-weight="850" fill="#172653">选择使用入口</text><path d="M800 210.0 V272.3333333333333" stroke="url(#accent3)" stroke-width="7" stroke-linecap="round" marker-end="url(#down3)"/><path d="M783 296.3333333333333 H735" stroke="#bd91aa" stroke-width="5" stroke-linecap="round"/><circle cx="800" cy="296.3333333333333" r="18" fill="url(#accent3)" stroke="#fff" stroke-width="4"/><g filter="url(#shadow3)"><rect x="335" y="248.33333333333331" width="400" height="96" rx="24" fill="url(#glass3)" stroke="#fff" stroke-width="4"/><rect x="341" y="254.33333333333331" width="388" height="84" rx="19" fill="none" stroke="#fff" stroke-opacity=".72" stroke-width="2"/></g><text x="360" y="306.3333333333333" font-family="Noto Sans SC, Microsoft YaHei, sans-serif" font-size="29" font-weight="900" fill="url(#accent3)">02</text><text x="431" y="305.3333333333333" font-family="Noto Sans SC, Microsoft YaHei, sans-serif" font-size="25" font-weight="850" fill="#172653">桌面应用路线</text><path d="M800 318.3333333333333 V380.66666666666663" stroke="url(#accent3)" stroke-width="7" stroke-linecap="round" marker-end="url(#down3)"/><rect x="70" y="361.66666666666663" width="210" height="54" rx="27" fill="#fff" fill-opacity=".7" stroke="#dbcbd7" stroke-width="2"/><text x="96" y="395.66666666666663" font-family="Noto Sans SC, Microsoft YaHei, sans-serif" font-size="18" font-weight="850" fill="#69566a">阶段 2 · 建立方法</text><path d="M817 404.66666666666663 H865" stroke="#bd91aa" stroke-width="5" stroke-linecap="round"/><circle cx="800" cy="404.66666666666663" r="18" fill="url(#accent3)" stroke="#fff" stroke-width="4"/><g filter="url(#shadow3)"><rect x="865" y="356.66666666666663" width="400" height="96" rx="24" fill="url(#glass3)" stroke="#fff" stroke-width="4"/><rect x="871" y="362.66666666666663" width="388" height="84" rx="19" fill="none" stroke="#fff" stroke-opacity=".72" stroke-width="2"/></g><text x="890" y="414.66666666666663" font-family="Noto Sans SC, Microsoft YaHei, sans-serif" font-size="29" font-weight="900" fill="url(#accent3)">03</text><text x="961" y="413.66666666666663" font-family="Noto Sans SC, Microsoft YaHei, sans-serif" font-size="25" font-weight="850" fill="#172653">命令行路线</text><path d="M800 426.66666666666663 V489.0" stroke="url(#accent3)" stroke-width="7" stroke-linecap="round" marker-end="url(#down3)"/><path d="M783 513.0 H735" stroke="#bd91aa" stroke-width="5" stroke-linecap="round"/><circle cx="800" cy="513.0" r="18" fill="url(#accent3)" stroke="#fff" stroke-width="4"/><g filter="url(#shadow3)"><rect x="335" y="465.0" width="400" height="96" rx="24" fill="url(#glass3)" stroke="#fff" stroke-width="4"/><rect x="341" y="471.0" width="388" height="84" rx="19" fill="none" stroke="#fff" stroke-opacity=".72" stroke-width="2"/></g><text x="360" y="523.0" font-family="Noto Sans SC, Microsoft YaHei, sans-serif" font-size="29" font-weight="900" fill="url(#accent3)">04</text><text x="431" y="522.0" font-family="Noto Sans SC, Microsoft YaHei, sans-serif" font-size="25" font-weight="850" fill="#172653">编辑器扩展路线</text><path d="M800 535.0 V597.3333333333333" stroke="url(#accent3)" stroke-width="7" stroke-linecap="round" marker-end="url(#down3)"/><rect x="70" y="578.3333333333333" width="210" height="54" rx="27" fill="#fff" fill-opacity=".7" stroke="#dbcbd7" stroke-width="2"/><text x="96" y="612.3333333333333" font-family="Noto Sans SC, Microsoft YaHei, sans-serif" font-size="18" font-weight="850" fill="#69566a">阶段 3 · 运行与控制</text><path d="M817 621.3333333333333 H865" stroke="#bd91aa" stroke-width="5" stroke-linecap="round"/><circle cx="800" cy="621.3333333333333" r="18" fill="url(#accent3)" stroke="#fff" stroke-width="4"/><g filter="url(#shadow3)"><rect x="865" y="573.3333333333333" width="400" height="96" rx="24" fill="url(#glass3)" stroke="#fff" stroke-width="4"/><rect x="871" y="579.3333333333333" width="388" height="84" rx="19" fill="none" stroke="#fff" stroke-opacity=".72" stroke-width="2"/></g><text x="890" y="631.3333333333333" font-family="Noto Sans SC, Microsoft YaHei, sans-serif" font-size="29" font-weight="900" fill="url(#accent3)">05</text><text x="961" y="630.3333333333333" font-family="Noto Sans SC, Microsoft YaHei, sans-serif" font-size="25" font-weight="850" fill="#172653">完成账号登录</text><path d="M800 643.3333333333333 V705.6666666666666" stroke="url(#accent3)" stroke-width="7" stroke-linecap="round" marker-end="url(#down3)"/><path d="M783 729.6666666666666 H735" stroke="#bd91aa" stroke-width="5" stroke-linecap="round"/><circle cx="800" cy="729.6666666666666" r="18" fill="url(#accent3)" stroke="#fff" stroke-width="4"/><g filter="url(#shadow3)"><rect x="335" y="681.6666666666666" width="400" height="96" rx="24" fill="url(#glass3)" stroke="#fff" stroke-width="4"/><rect x="341" y="687.6666666666666" width="388" height="84" rx="19" fill="none" stroke="#fff" stroke-opacity=".72" stroke-width="2"/></g><text x="360" y="739.6666666666666" font-family="Noto Sans SC, Microsoft YaHei, sans-serif" font-size="29" font-weight="900" fill="url(#accent3)">06</text><text x="431" y="738.6666666666666" font-family="Noto Sans SC, Microsoft YaHei, sans-serif" font-size="25" font-weight="850" fill="#172653">打开项目试用</text><path d="M800 751.6666666666666 V814.0" stroke="url(#accent3)" stroke-width="7" stroke-linecap="round" marker-end="url(#down3)"/><rect x="70" y="795.0" width="210" height="54" rx="27" fill="#fff" fill-opacity=".7" stroke="#dbcbd7" stroke-width="2"/><text x="96" y="829.0" font-family="Noto Sans SC, Microsoft YaHei, sans-serif" font-size="18" font-weight="850" fill="#69566a">阶段 4 · 判断结论</text><path d="M817 838.0 H865" stroke="#bd91aa" stroke-width="5" stroke-linecap="round"/><circle cx="800" cy="838.0" r="18" fill="url(#accent3)" stroke="#fff" stroke-width="4"/><g filter="url(#shadow3)"><rect x="865" y="790.0" width="400" height="96" rx="24" fill="url(#glass3)" stroke="#fff" stroke-width="4"/><rect x="871" y="796.0" width="388" height="84" rx="19" fill="none" stroke="#fff" stroke-opacity=".72" stroke-width="2"/></g><text x="890" y="848.0" font-family="Noto Sans SC, Microsoft YaHei, sans-serif" font-size="29" font-weight="900" fill="url(#accent3)">07</text><text x="961" y="847.0" font-family="Noto Sans SC, Microsoft YaHei, sans-serif" font-size="25" font-weight="850" fill="#172653">对照操作文档</text><rect x="330" y="910" width="940" height="54" rx="27" fill="#fff" fill-opacity=".76" stroke="#ddc8d7" stroke-width="2"/><text x="800" y="944" text-anchor="middle" font-family="Noto Sans SC, Microsoft YaHei, sans-serif" font-size="22" font-weight="820" fill="#172653">选择使用入口  →  对照操作文档</text></svg>