<svg xmlns="http://www.w3.org/2000/svg" width="1600" height="1000" viewBox="0 0 1600 1000">
    <defs>
      <linearGradient id="bg3" x1="0" y1="0" x2="1" y2="1"><stop stop-color="#fbfafc"/><stop offset=".52" stop-color="#f6f2f6"/><stop offset="1" stop-color="#eef4f8"/></linearGradient>
      <linearGradient id="glass3" x1="0" y1="0" x2="1" y2="1"><stop stop-color="#ffffff" stop-opacity=".94"/><stop offset=".52" stop-color="#f3e8ee" stop-opacity=".76"/><stop offset="1" stop-color="#e5edf4" stop-opacity=".78"/></linearGradient>
      <linearGradient id="accent3" x1="0" y1="0" x2="1" y2="1"><stop stop-color="#9a919a"/><stop offset=".5" stop-color="#bd91aa"/><stop offset="1" stop-color="#d3a2bc"/></linearGradient>
      <filter id="shadow3" x="-20%" y="-30%" width="140%" height="170%"><feDropShadow dx="0" dy="8" stdDeviation="9" flood-color="#62586d" flood-opacity=".14"/></filter>
      <marker id="down3" markerUnits="userSpaceOnUse" markerWidth="22" markerHeight="18" refX="16" refY="9" orient="auto"><path d="M0 0L18 9L0 18Z" fill="#bd91aa"/></marker>
    </defs>
    <rect width="1600" height="1000" fill="url(#bg3)"/>
    <ellipse cx="180" cy="120" rx="280" ry="180" fill="#eab7cc" opacity=".10"/>
    <ellipse cx="1430" cy="820" rx="310" ry="220" fill="#a9cfe2" opacity=".11"/>
    <text x="90" y="88" font-family="Noto Sans SC, Microsoft YaHei, sans-serif" font-size="50" font-weight="900" fill="#172653">自己部署开源模型</text>
    <text x="92" y="132" font-family="Noto Sans SC, Microsoft YaHei, sans-serif" font-size="21" font-weight="560" fill="#625e70">把 AI 能力真正运行在自己的设备与服务器上。</text>
    <path d="M800 184 V892" stroke="#d7c8d3" stroke-width="5" stroke-linecap="round"/><rect x="70" y="145.0" width="210" height="54" rx="27" fill="#fff" fill-opacity=".7" stroke="#dbcbd7" stroke-width="2"/><text x="96" y="179.0" font-family="Noto Sans SC, Microsoft YaHei, sans-serif" font-size="18" font-weight="850" fill="#69566a">阶段 1 · 理解起点</text><path d="M817 188.0 H865" stroke="#bd91aa" stroke-width="5" stroke-linecap="round"/><circle cx="800" cy="188.0" r="18" fill="url(#accent3)" stroke="#fff" stroke-width="4"/><g filter="url(#shadow3)"><rect x="865" y="140.0" width="400" height="96" rx="24" fill="url(#glass3)" stroke="#fff" stroke-width="4"/><rect x="871" y="146.0" width="388" height="84" rx="19" fill="none" stroke="#fff" stroke-opacity=".72" stroke-width="2"/></g><text x="890" y="198.0" font-family="Noto Sans SC, Microsoft YaHei, sans-serif" font-size="29" font-weight="900" fill="url(#accent3)">01</text><text x="961" y="197.0" font-family="Noto Sans SC, Microsoft YaHei, sans-serif" font-size="25" font-weight="850" fill="#172653">选择合适模型</text><path d="M800 210.0 V256.8571428571429" stroke="url(#accent3)" stroke-width="7" stroke-linecap="round" marker-end="url(#down3)"/><path d="M783 280.8571428571429 H735" stroke="#bd91aa" stroke-width="5" stroke-linecap="round"/><circle cx="800" cy="280.8571428571429" r="18" fill="url(#accent3)" stroke="#fff" stroke-width="4"/><g filter="url(#shadow3)"><rect x="335" y="232.8571428571429" width="400" height="96" rx="24" fill="url(#glass3)" stroke="#fff" stroke-width="4"/><rect x="341" y="238.8571428571429" width="388" height="84" rx="19" fill="none" stroke="#fff" stroke-opacity=".72" stroke-width="2"/></g><text x="360" y="290.8571428571429" font-family="Noto Sans SC, Microsoft YaHei, sans-serif" font-size="29" font-weight="900" fill="url(#accent3)">02</text><text x="431" y="289.8571428571429" font-family="Noto Sans SC, Microsoft YaHei, sans-serif" font-size="25" font-weight="850" fill="#172653">准备 GPU 环境</text><path d="M800 302.8571428571429 V349.7142857142857" stroke="url(#accent3)" stroke-width="7" stroke-linecap="round" marker-end="url(#down3)"/><rect x="70" y="330.7142857142857" width="210" height="54" rx="27" fill="#fff" fill-opacity=".7" stroke="#dbcbd7" stroke-width="2"/><text x="96" y="364.7142857142857" font-family="Noto Sans SC, Microsoft YaHei, sans-serif" font-size="18" font-weight="850" fill="#69566a">阶段 2 · 建立方法</text><path d="M817 373.7142857142857 H865" stroke="#bd91aa" stroke-width="5" stroke-linecap="round"/><circle cx="800" cy="373.7142857142857" r="18" fill="url(#accent3)" stroke="#fff" stroke-width="4"/><g filter="url(#shadow3)"><rect x="865" y="325.7142857142857" width="400" height="96" rx="24" fill="url(#glass3)" stroke="#fff" stroke-width="4"/><rect x="871" y="331.7142857142857" width="388" height="84" rx="19" fill="none" stroke="#fff" stroke-opacity=".72" stroke-width="2"/></g><text x="890" y="383.7142857142857" font-family="Noto Sans SC, Microsoft YaHei, sans-serif" font-size="29" font-weight="900" fill="url(#accent3)">03</text><text x="961" y="382.7142857142857" font-family="Noto Sans SC, Microsoft YaHei, sans-serif" font-size="25" font-weight="850" fill="#172653">建立推理服务</text><path d="M800 395.7142857142857 V442.57142857142856" stroke="url(#accent3)" stroke-width="7" stroke-linecap="round" marker-end="url(#down3)"/><path d="M783 466.57142857142856 H735" stroke="#bd91aa" stroke-width="5" stroke-linecap="round"/><circle cx="800" cy="466.57142857142856" r="18" fill="url(#accent3)" stroke="#fff" stroke-width="4"/><g filter="url(#shadow3)"><rect x="335" y="418.57142857142856" width="400" height="96" rx="24" fill="url(#glass3)" stroke="#fff" stroke-width="4"/><rect x="341" y="424.57142857142856" width="388" height="84" rx="19" fill="none" stroke="#fff" stroke-opacity=".72" stroke-width="2"/></g><text x="360" y="476.57142857142856" font-family="Noto Sans SC, Microsoft YaHei, sans-serif" font-size="29" font-weight="900" fill="url(#accent3)">04</text><text x="431" y="475.57142857142856" font-family="Noto Sans SC, Microsoft YaHei, sans-serif" font-size="25" font-weight="850" fill="#172653">压缩模型体积</text><path d="M800 488.57142857142856 V535.4285714285714" stroke="url(#accent3)" stroke-width="7" stroke-linecap="round" marker-end="url(#down3)"/><rect x="70" y="516.4285714285714" width="210" height="54" rx="27" fill="#fff" fill-opacity=".7" stroke="#dbcbd7" stroke-width="2"/><text x="96" y="550.4285714285714" font-family="Noto Sans SC, Microsoft YaHei, sans-serif" font-size="18" font-weight="850" fill="#69566a">阶段 3 · 运行与控制</text><path d="M817 559.4285714285714 H865" stroke="#bd91aa" stroke-width="5" stroke-linecap="round"/><circle cx="800" cy="559.4285714285714" r="18" fill="url(#accent3)" stroke="#fff" stroke-width="4"/><g filter="url(#shadow3)"><rect x="865" y="511.42857142857144" width="400" height="96" rx="24" fill="url(#glass3)" stroke="#fff" stroke-width="4"/><rect x="871" y="517.4285714285714" width="388" height="84" rx="19" fill="none" stroke="#fff" stroke-opacity=".72" stroke-width="2"/></g><text x="890" y="569.4285714285714" font-family="Noto Sans SC, Microsoft YaHei, sans-serif" font-size="29" font-weight="900" fill="url(#accent3)">05</text><text x="961" y="568.4285714285714" font-family="Noto Sans SC, Microsoft YaHei, sans-serif" font-size="25" font-weight="850" fill="#172653">保障稳定运行</text><path d="M800 581.4285714285714 V628.2857142857143" stroke="url(#accent3)" stroke-width="7" stroke-linecap="round" marker-end="url(#down3)"/><path d="M783 652.2857142857143 H735" stroke="#bd91aa" stroke-width="5" stroke-linecap="round"/><circle cx="800" cy="652.2857142857143" r="18" fill="url(#accent3)" stroke="#fff" stroke-width="4"/><g filter="url(#shadow3)"><rect x="335" y="604.2857142857143" width="400" height="96" rx="24" fill="url(#glass3)" stroke="#fff" stroke-width="4"/><rect x="341" y="610.2857142857143" width="388" height="84" rx="19" fill="none" stroke="#fff" stroke-opacity=".72" stroke-width="2"/></g><text x="360" y="662.2857142857143" font-family="Noto Sans SC, Microsoft YaHei, sans-serif" font-size="29" font-weight="900" fill="url(#accent3)">06</text><text x="431" y="661.2857142857143" font-family="Noto Sans SC, Microsoft YaHei, sans-serif" font-size="25" font-weight="850" fill="#172653">掌握数据边界</text><path d="M800 674.2857142857143 V721.1428571428571" stroke="url(#accent3)" stroke-width="7" stroke-linecap="round" marker-end="url(#down3)"/><rect x="70" y="702.1428571428571" width="210" height="54" rx="27" fill="#fff" fill-opacity=".7" stroke="#dbcbd7" stroke-width="2"/><text x="96" y="736.1428571428571" font-family="Noto Sans SC, Microsoft YaHei, sans-serif" font-size="18" font-weight="850" fill="#69566a">阶段 4 · 判断结论</text><path d="M817 745.1428571428571 H865" stroke="#bd91aa" stroke-width="5" stroke-linecap="round"/><circle cx="800" cy="745.1428571428571" r="18" fill="url(#accent3)" stroke="#fff" stroke-width="4"/><g filter="url(#shadow3)"><rect x="865" y="697.1428571428571" width="400" height="96" rx="24" fill="url(#glass3)" stroke="#fff" stroke-width="4"/><rect x="871" y="703.1428571428571" width="388" height="84" rx="19" fill="none" stroke="#fff" stroke-opacity=".72" stroke-width="2"/></g><text x="890" y="755.1428571428571" font-family="Noto Sans SC, Microsoft YaHei, sans-serif" font-size="29" font-weight="900" fill="url(#accent3)">07</text><text x="961" y="754.1428571428571" font-family="Noto Sans SC, Microsoft YaHei, sans-serif" font-size="25" font-weight="850" fill="#172653">核算真实成本</text><path d="M800 767.1428571428571 V814.0" stroke="url(#accent3)" stroke-width="7" stroke-linecap="round" marker-end="url(#down3)"/><path d="M783 838.0 H735" stroke="#bd91aa" stroke-width="5" stroke-linecap="round"/><circle cx="800" cy="838.0" r="18" fill="url(#accent3)" stroke="#fff" stroke-width="4"/><g filter="url(#shadow3)"><rect x="335" y="790.0" width="400" height="96" rx="24" fill="url(#glass3)" stroke="#fff" stroke-width="4"/><rect x="341" y="796.0" width="388" height="84" rx="19" fill="none" stroke="#fff" stroke-opacity=".72" stroke-width="2"/></g><text x="360" y="848.0" font-family="Noto Sans SC, Microsoft YaHei, sans-serif" font-size="29" font-weight="900" fill="url(#accent3)">08</text><text x="431" y="847.0" font-family="Noto Sans SC, Microsoft YaHei, sans-serif" font-size="25" font-weight="850" fill="#172653">用真实任务验证</text><rect x="330" y="910" width="940" height="54" rx="27" fill="#fff" fill-opacity=".76" stroke="#ddc8d7" stroke-width="2"/><text x="800" y="944" text-anchor="middle" font-family="Noto Sans SC, Microsoft YaHei, sans-serif" font-size="22" font-weight="820" fill="#172653">选择合适模型  →  用真实任务验证</text></svg>